<?xml version="1.0" encoding="UTF-8" standalone="no"?>
<svg
   xmlns:dc="http://purl.org/dc/elements/1.1/"
   xmlns:cc="http://creativecommons.org/ns#"
   xmlns:rdf="http://www.w3.org/1999/02/22-rdf-syntax-ns#"
   xmlns:svg="http://www.w3.org/2000/svg"
   xmlns="http://www.w3.org/2000/svg"
   xmlns:sodipodi="http://sodipodi.sourceforge.net/DTD/sodipodi-0.dtd"
   xmlns:inkscape="http://www.inkscape.org/namespaces/inkscape"
   height="24"
   viewBox="0 0 24 24"
   width="24"
   version="1.1"
   id="svg6"
   sodipodi:docname="directions_run-24px.svg"
   inkscape:version="0.92.4 (5da689c313, 2019-01-14)">
  <metadata
     id="metadata12">
    <rdf:RDF>
      <cc:Work
         rdf:about="">
        <dc:format>image/svg+xml</dc:format>
        <dc:type
           rdf:resource="http://purl.org/dc/dcmitype/StillImage" />
      </cc:Work>
    </rdf:RDF>
  </metadata>
  <defs
     id="defs10" />
  <sodipodi:namedview
     pagecolor="#ffffff"
     bordercolor="#666666"
     borderopacity="1"
     objecttolerance="10"
     gridtolerance="10"
     guidetolerance="10"
     inkscape:pageopacity="0"
     inkscape:pageshadow="2"
     inkscape:window-width="1850"
     inkscape:window-height="1016"
     id="namedview8"
     showgrid="false"
     inkscape:zoom="9.8333333"
     inkscape:cx="12"
     inkscape:cy="12"
     inkscape:window-x="70"
     inkscape:window-y="27"
     inkscape:window-maximized="1"
     inkscape:current-layer="svg6" />
  <path
     d="M0 0h24v24H0V0z"
     fill="none"
     id="path2" />
  <path
     d="M11.49 3.48c0 1.1.9 2 2 2s2-.9 2-2-.9-2-2-2-2 .9-2 2zm-.6 11.5l2.1 2v6h2v-7.5l-2.1-2 .6-3c1.3 1.5 3.3 2.5 5.5 2.5v-2c-1.9 0-3.5-1-4.3-2.4l-1-1.6c-.4-.6-1-1-1.7-1-.3 0-.5.1-.8.1l-5.2 2.2v4.7h2v-3.4l1.8-.7-1.6 8.1-4.9-1-.4 2 7 1.4 1-4.4z"
     id="path4" />
  <path
     style="fill:teal;stroke-width:0.10169491"
     d="m 13.057627,19.932189 v -2.989846 l -1.070084,-0.990918 c -0.588546,-0.545005 -1.091945,-0.969057 -1.118663,-0.942339 -0.02672,0.02672 -0.264832,1.008497 -0.529141,2.181731 L 9.8591765,19.323968 6.4726315,18.645706 C 4.6100318,18.27266 3.0584345,17.939791 3.0246377,17.905993 c -0.033797,-0.0338 0.017575,-0.468293 0.114159,-0.965547 l 0.1756077,-0.9041 2.4453268,0.496247 C 7.104661,16.805529 8.2152329,17.016249 8.227669,17.000861 8.299673,16.911761 9.8076915,8.9602339 9.7613702,8.9139126 9.7304512,8.8829936 9.3153933,9.0083816 8.8390181,9.1925515 L 7.9728814,9.5274059 v 1.7142631 1.714263 H 7.0067797 6.040678 V 10.632867 8.3098015 L 8.6084746,7.2287949 C 10.020763,6.6342413 11.368588,6.1181875 11.603641,6.0820086 c 1.070732,-0.1648044 1.607461,0.2256842 2.686797,1.9547369 1.158016,1.8550946 2.208341,2.6418855 3.882328,2.9082285 l 0.783166,0.124607 v 0.954893 0.954893 l -0.584746,-0.0698 c -1.63978,-0.195729 -3.095761,-0.83833 -4.185544,-1.847303 -0.576209,-0.533481 -0.715544,-0.620457 -0.758056,-0.473198 -0.02865,0.09923 -0.174417,0.798052 -0.323933,1.552934 l -0.271847,1.372512 1.081677,1.017318 1.081677,1.017319 -0.0027,3.68644 -0.0027,3.686441 h -0.966102 -0.966102 z"
     id="path14"
     inkscape:connector-curvature="0" />
  <path
     style="fill:teal;stroke-width:0.10169491"
     d="M 12.701695,5.2439943 C 11.700729,4.7680082 11.281964,3.6925116 11.725003,2.7355932 c 0.358099,-0.7734574 0.968298,-1.1694915 1.801922,-1.1694915 1.073372,0 1.869685,0.8261456 1.869685,1.9397295 0,1.3868657 -1.457201,2.3267293 -2.694915,1.7381631 z"
     id="path16"
     inkscape:connector-curvature="0" />
</svg>
