<?xml version="1.0" encoding="UTF-8" standalone="no"?>
<svg
   xmlns:dc="http://purl.org/dc/elements/1.1/"
   xmlns:cc="http://creativecommons.org/ns#"
   xmlns:rdf="http://www.w3.org/1999/02/22-rdf-syntax-ns#"
   xmlns:svg="http://www.w3.org/2000/svg"
   xmlns="http://www.w3.org/2000/svg"
   xmlns:sodipodi="http://sodipodi.sourceforge.net/DTD/sodipodi-0.dtd"
   xmlns:inkscape="http://www.inkscape.org/namespaces/inkscape"
   enable-background="new 0 0 24 24"
   height="24"
   viewBox="0 0 24 24"
   width="24"
   version="1.1"
   id="svg24"
   sodipodi:docname="menu_book-24px.svg"
   inkscape:version="0.92.4 (5da689c313, 2019-01-14)">
  <metadata
     id="metadata30">
    <rdf:RDF>
      <cc:Work
         rdf:about="">
        <dc:format>image/svg+xml</dc:format>
        <dc:type
           rdf:resource="http://purl.org/dc/dcmitype/StillImage" />
      </cc:Work>
    </rdf:RDF>
  </metadata>
  <defs
     id="defs28" />
  <sodipodi:namedview
     pagecolor="#ffffff"
     bordercolor="#666666"
     borderopacity="1"
     objecttolerance="10"
     gridtolerance="10"
     guidetolerance="10"
     inkscape:pageopacity="0"
     inkscape:pageshadow="2"
     inkscape:window-width="1850"
     inkscape:window-height="1016"
     id="namedview26"
     showgrid="false"
     inkscape:zoom="9.8333333"
     inkscape:cx="12"
     inkscape:cy="12"
     inkscape:window-x="70"
     inkscape:window-y="27"
     inkscape:window-maximized="1"
     inkscape:current-layer="svg24" />
  <g
     id="g4">
    <rect
       fill="none"
       height="24"
       width="24"
       id="rect2" />
  </g>
  <g
     id="g22">
    <g
       id="g6" />
    <g
       id="g12">
      <path
         d="M21,5c-1.11-0.35-2.33-0.5-3.5-0.5c-1.95,0-4.05,0.4-5.5,1.5c-1.45-1.1-3.55-1.5-5.5-1.5S2.45,4.9,1,6v14.65 c0,0.25,0.25,0.5,0.5,0.5c0.1,0,0.15-0.05,0.25-0.05C3.1,20.45,5.05,20,6.5,20c1.95,0,4.05,0.4,5.5,1.5c1.35-0.85,3.8-1.5,5.5-1.5 c1.65,0,3.35,0.3,4.75,1.05c0.1,0.05,0.15,0.05,0.25,0.05c0.25,0,0.5-0.25,0.5-0.5V6C22.4,5.55,21.75,5.25,21,5z M3,18.5V7 c1.1-0.35,2.3-0.5,3.5-0.5c1.34,0,3.13,0.41,4.5,0.99v11.5C9.63,18.41,7.84,18,6.5,18C5.3,18,4.1,18.15,3,18.5z M21,18.5 c-1.1-0.35-2.3-0.5-3.5-0.5c-1.34,0-3.13,0.41-4.5,0.99V7.49c1.37-0.59,3.16-0.99,4.5-0.99c1.2,0,2.4,0.15,3.5,0.5V18.5z"
         id="path8" />
      <path
         d="M11,7.49C9.63,6.91,7.84,6.5,6.5,6.5C5.3,6.5,4.1,6.65,3,7v11.5C4.1,18.15,5.3,18,6.5,18 c1.34,0,3.13,0.41,4.5,0.99V7.49z"
         opacity=".3"
         id="path10" />
    </g>
    <g
       id="g20">
      <path
         d="M17.5,10.5c0.88,0,1.73,0.09,2.5,0.26V9.24C19.21,9.09,18.36,9,17.5,9c-1.28,0-2.46,0.16-3.5,0.47v1.57 C14.99,10.69,16.18,10.5,17.5,10.5z"
         id="path14" />
      <path
         d="M17.5,13.16c0.88,0,1.73,0.09,2.5,0.26V11.9c-0.79-0.15-1.64-0.24-2.5-0.24c-1.28,0-2.46,0.16-3.5,0.47v1.57 C14.99,13.36,16.18,13.16,17.5,13.16z"
         id="path16" />
      <path
         d="M17.5,15.83c0.88,0,1.73,0.09,2.5,0.26v-1.52c-0.79-0.15-1.64-0.24-2.5-0.24c-1.28,0-2.46,0.16-3.5,0.47v1.57 C14.99,16.02,16.18,15.83,17.5,15.83z"
         id="path18" />
    </g>
  </g>
  <path
     style="fill:teal;stroke-width:0.10169491"
     d="M 11.430508,21.080343 C 11.178814,20.915095 10.561017,20.648014 10.057627,20.48683 7.7496844,19.747835 5.2435959,19.801964 2.8372881,20.64278 1.4845549,21.115456 1.3866548,21.136301 1.2095851,20.989345 1.0772982,20.879558 1.0576271,19.897546 1.0576271,13.403375 V 5.9435179 L 1.9983051,5.4926714 C 3.1024722,4.9634681 3.8636936,4.7627927 5.3693677,4.6039822 7.415356,4.3881822 9.656263,4.7644519 11.200538,5.5830911 l 0.837826,0.444142 0.572947,-0.3450104 c 1.441084,-0.8677754 3.776122,-1.287171 5.977153,-1.0735544 1.493595,0.1449579 2.276498,0.34894 3.392892,0.8840031 l 0.940678,0.4508465 v 7.4057001 c 0,8.678685 0.104028,7.973857 -1.098962,7.445861 -1.678889,-0.736868 -3.979547,-0.998731 -5.921585,-0.674 -1.165771,0.194931 -2.555122,0.617316 -3.34182,1.015966 -0.281726,0.14276 -0.548071,0.256007 -0.59188,0.251657 -0.04381,-0.0044 -0.285584,-0.143111 -0.537279,-0.308359 z M 10.978777,7.4943172 C 10.929276,7.364929 9.3602438,6.8557625 8.3288136,6.6343778 7.1053081,6.3717663 4.5295272,6.4923276 3.320339,6.8688032 L 2.9898305,6.9717055 v 5.7996035 c 0,5.481688 0.00976,5.795855 0.1779661,5.731216 0.6631484,-0.254829 1.7379933,-0.391161 3.1271187,-0.39664 1.3218047,-0.0052 1.6681321,0.02972 2.5945319,0.2617 0.5880095,0.147244 1.2973318,0.35737 1.5762708,0.466946 l 0.507163,0.199227 0.02641,-5.708404 c 0.01452,-3.139623 0.0053,-5.7635892 -0.02051,-5.8310368 z m 4.489878,10.7831968 c 1.405324,-0.329349 3.771394,-0.228172 5.394057,0.23066 l 0.228813,0.0647 V 12.769183 6.9654923 L 20.710169,6.8562679 C 20.500424,6.7961946 19.871186,6.6751448 19.311864,6.5872685 17.577838,6.3148318 15.734517,6.4987885 13.843357,7.1330059 l -0.836577,0.2805534 -0.02625,5.8158667 -0.02625,5.815866 0.861011,-0.29104 c 0.473555,-0.160072 1.217573,-0.374605 1.653372,-0.476738 z"
     id="path3737"
     inkscape:connector-curvature="0" />
  <path
     style="fill:lightgray;stroke-width:0.10169491"
     d="M 10.505584,18.753213 C 10.199362,18.574177 8.3475401,18.139885 7.3870169,18.021844 6.3400045,17.893175 4.6520837,18.011849 3.6254237,18.286316 L 3.0915254,18.429049 V 12.708176 6.9873043 L 3.879661,6.8106011 C 5.7812634,6.3842542 7.9056908,6.5077355 9.9532431,7.1636249 l 0.9687909,0.3103313 v 5.6901408 c 0,5.944975 0.008,5.83729 -0.41645,5.589116 z"
     id="path3739"
     inkscape:connector-curvature="0" />
</svg>
